<?xml version="1.0" encoding="UTF-8"?><svg id="Layer_1" xmlns="http://www.w3.org/2000/svg" viewBox="0 0 24 24"><defs><style>.cls-1{fill:#0c0c0c;}.cls-2{fill:#101010;}.cls-3{fill:#0e0e0e;}</style></defs><path class="cls-2" d="M12.03,3.6c-3.39,0-6.79,0-10.18,0-.86,0-1.82,.04-1.83-1.15C0,1.23,.96,1.1,1.91,1.1c6.62,0,13.24,0,19.87,0,.39,0,.77,.07,1.16,.12,.63,.09,1.04,.46,1.06,1.09,.03,.73-.44,1.16-1.12,1.21-1.11,.08-2.22,.06-3.33,.07-2.5,0-5.01,0-7.51,0Z"/><path class="cls-3" d="M11.95,13.18c-3.34,0-6.69,0-10.03,0-.93,0-1.95-.04-1.91-1.29,.03-1.21,1.08-1.07,1.9-1.07,6.63,0,13.26,0,19.9,0,.33,0,.67,0,1,.05,.74,.13,1.27,.53,1.19,1.34-.08,.75-.66,.96-1.34,.96-2.79,0-5.57,0-8.36,0-.78,0-1.56,0-2.34,0Z"/><path class="cls-1" d="M11.93,20.45c3.4,0,6.8,0,10.21,0,.89,0,1.83,.02,1.81,1.18-.02,1.07-.88,1.28-1.81,1.27-6.75,0-13.5,0-20.25-.01-.9,0-1.95-.02-1.9-1.31,.05-1.17,1.04-1.12,1.89-1.12,3.35,0,6.69,0,10.04,0Z"/></svg>