<?xml version="1.0" encoding="UTF-8"?><svg id="Layer_2" xmlns="http://www.w3.org/2000/svg" viewBox="0 0 2551.36 906.68"><g id="Layer_1-2"><path d="M367.06,.85c-.93,1.67-1.82,3.36-2.79,5-32.42,54.77-58.58,112.28-75.75,173.66-11.17,39.93-17.84,80.55-16.53,122.16,1.79,56.77,18.89,107.69,57.65,150.41,32.74,36.08,73.57,57.47,120.82,67.43,44.76,9.44,89.89,9.59,135.25,5.54,55.62-4.97,109.44-18.49,163.17-32.87,113.73-30.43,227.6-60.34,341.4-90.51,88.09-23.35,176.15-46.77,264.23-70.16,116.68-30.98,233.37-61.95,350.05-92.96,113.14-30.07,226.26-60.2,339.41-90.25,131.47-34.92,262.95-69.79,394.43-104.66,36.48-9.68,72.98-19.32,109.47-28.96,1.06-.28,2.18-.36,3.49,.17-6.06,2.63-12.11,5.28-18.18,7.88-182.71,78.12-365.43,156.24-548.15,234.34-203.51,86.99-407.03,173.96-610.56,260.92-223.86,95.65-447.73,191.28-671.59,286.92-70.12,29.95-141.41,56.58-215.37,75.59-49.26,12.66-99.04,22.83-149.9,25.19-48.78,2.27-97.52,1.52-145.13-12.4-81.42-23.8-140.56-73.13-174.02-151.51C3.86,707.62-.5,671.27,.04,634.33c.74-50.56,11.37-99.31,27.49-147,22.66-67.06,55.16-129.25,93.83-188.36,43.75-66.87,93.77-128.94,146.31-189,31.13-35.59,63.07-70.48,94.64-105.68,1.26-1.41,2.47-2.86,3.7-4.29,.35,.28,.69,.57,1.04,.85Z"/></g></svg>