<?xml version="1.0" encoding="UTF-8"?><svg id="Layer_1" xmlns="http://www.w3.org/2000/svg" viewBox="0 0 24 24"><defs><style>.cls-1{fill:#010101;}</style></defs><path class="cls-1" d="M23.72,22.31l-5.96-5.96c3.5-4.28,2.87-10.58-1.41-14.08C12.06-1.24,5.76-.61,2.26,3.67-1.24,7.95-.61,14.26,3.67,17.76c3.69,3.01,8.98,3.01,12.67,0l5.96,5.96c.4,.38,1.03,.37,1.41-.02,.37-.39,.37-1,0-1.39Zm-13.7-4.29c-4.41,0-7.99-3.58-7.99-7.99S5.61,2.03,10.02,2.03s7.99,3.58,7.99,7.99c0,4.41-3.58,7.99-7.99,7.99Z"/></svg>