<?xml version="1.0" encoding="UTF-8"?><svg id="Layer_1" xmlns="http://www.w3.org/2000/svg" viewBox="0 0 24 24"><path d="M6.21,4.34c.12-.25,.19-.34,.2-.43C6.77,.02,6.78,0,10.73,0c1.15,0,2.3,0,3.46,0,2.4,.01,3.03,.63,3.08,3,0,.39,.05,.78,.09,1.35,1.05,0,2.04-.05,3.03,.01,1.54,.09,2.27,.85,2.28,2.39,.03,4.56,.03,9.13,0,13.69-.01,2.01-1.41,3.33-3.45,3.34-4.86,.02-9.71,.02-14.57,0-2.43,0-3.59-1.17-3.61-3.61-.02-4.36-.02-8.73,0-13.09,0-1.96,.76-2.69,2.74-2.74,.84-.02,1.68,0,2.44,0Zm14.33,2.25H3.2c0,4.69-.04,9.3,.06,13.9,0,.41,.89,1.13,1.38,1.14,4.81,.09,9.62,.06,14.44,.06,.99,0,1.47-.52,1.46-1.5,0-1.26,0-2.51,0-3.77,0-3.25,0-6.5,0-9.83Zm-11.88-2.36h6.37V2.21h-6.37v2.01Z"/></svg>